<svg width="119" height="36" viewBox="0 0 119 36" fill="none" xmlns="http://www.w3.org/2000/svg">
    <path d="M9.11849 9.56877V10.9573H5.44744V22.6382H3.68982V10.9573H0V9.56877H9.11849Z" fill="#1A1A1A"/>
    <path d="M37.0103 9.56877V17.8377C37.0103 19.0004 37.3028 19.8627 37.8891 20.4256C38.4757 20.9888 39.2899 21.2696 40.3323 21.2696C41.3635 21.2696 42.1717 20.9888 42.7564 20.4256C43.3429 19.8627 43.6369 19.0004 43.6369 17.8377V9.56877H45.3945V17.8194C45.3945 18.9073 45.1681 19.823 44.7185 20.5661C44.2673 21.3107 43.6589 21.863 42.8933 22.2263C42.126 22.5879 41.2661 22.7694 40.3134 22.7694C39.3608 22.7694 38.5007 22.5879 37.7351 22.2263C36.9678 21.863 36.3627 21.3107 35.9192 20.5661C35.4742 19.823 35.2527 18.9073 35.2527 17.8194V9.56877H37.0103Z" fill="#1A1A1A"/>
    <path d="M50.0874 15.9258H52.6767C53.6294 15.9258 54.3448 15.6984 54.8211 15.2406C55.2974 14.7845 55.5363 14.1754 55.5363 13.4126C55.5363 12.6374 55.3004 12.0379 54.8304 11.6137C54.3605 11.1878 53.642 10.9758 52.6767 10.9758H50.0874V15.9258ZM55.4201 22.6382L52.2129 17.2946H50.0874V22.6382H48.3297V9.56877H52.6767C53.6939 9.56877 54.5538 9.73831 55.2549 10.0755C55.9576 10.4128 56.4828 10.8689 56.8302 11.4443C57.1777 12.0193 57.3522 12.6756 57.3522 13.4126C57.3522 14.3129 57.0849 15.1062 56.5504 15.7946C56.016 16.4827 55.214 16.9374 54.1451 17.1633L57.5252 22.6382H55.4201Z" fill="#1A1A1A"/>
    <path d="M75.4334 13.3561C75.0607 12.5948 74.5182 12.0042 73.8109 11.5845C73.1019 11.1664 72.278 10.9573 71.338 10.9573C70.3979 10.9573 69.552 11.1664 68.7972 11.5845C68.0445 12.0042 67.4517 12.6039 67.0209 13.3852C66.5886 14.1665 66.3732 15.0698 66.3732 16.0937C66.3732 17.1191 66.5886 18.0194 67.0209 18.7946C67.4517 19.5696 68.0445 20.1662 68.7972 20.5844C69.552 21.004 70.3979 21.2131 71.338 21.2131C72.6524 21.2131 73.7339 20.8316 74.5846 20.0701C75.4334 19.3071 75.9301 18.2756 76.0718 16.9756H70.7012V15.5886H77.9456V16.9009C77.8418 17.9765 77.4944 18.9607 76.9018 19.8535C76.309 20.7477 75.5309 21.4542 74.564 21.973C73.5989 22.4919 72.5233 22.7511 71.338 22.7511C70.0882 22.7511 68.9499 22.4659 67.9185 21.8982C66.8888 21.329 66.0744 20.5386 65.4755 19.5252C64.8764 18.5138 64.5764 17.3693 64.5764 16.0937C64.5764 14.8195 64.8764 13.672 65.4755 12.6542C66.0744 11.6349 66.8888 10.8414 67.9185 10.2724C68.9499 9.70318 70.0882 9.41931 71.338 9.41931C72.767 9.41931 74.0325 9.7626 75.1348 10.4508C76.2349 11.1374 77.0369 12.1064 77.5401 13.3561H75.4334Z" fill="#1A1A1A"/>
    <path d="M81.9831 9.56877V17.8377C81.9831 19.0004 82.2754 19.8627 82.8618 20.4256C83.4481 20.9888 84.2626 21.2696 85.3048 21.2696C86.3362 21.2696 87.1442 20.9888 87.729 20.4256C88.3156 19.8627 88.6094 19.0004 88.6094 17.8377V9.56877H90.3672V17.8194C90.3672 18.9073 90.1407 19.823 89.691 20.5661C89.2399 21.3107 88.6313 21.863 87.8658 22.2263C87.0987 22.5879 86.2386 22.7694 85.286 22.7694C84.3333 22.7694 83.4731 22.5879 82.7076 22.2263C81.9405 21.863 81.3352 21.3107 80.8919 20.5661C80.4471 19.823 80.2252 18.9073 80.2252 17.8194V9.56877H81.9831Z" fill="#1A1A1A"/>
    <path d="M95.0598 9.56877V22.6382H93.3023V9.56877H95.0598Z" fill="#1A1A1A"/>
    <path d="M106.227 19.8915C107.142 18.9975 107.598 17.7446 107.598 16.1318C107.598 14.5066 107.137 13.2385 106.217 12.3262C105.296 11.4137 103.972 10.9573 102.248 10.9573H99.8127V21.2314H102.248C103.987 21.2314 105.312 20.7859 106.227 19.8915ZM106.064 10.3669C107.137 10.8981 107.962 11.6563 108.535 12.6434C109.109 13.6323 109.395 14.7952 109.395 16.1318C109.395 17.47 109.109 18.6281 108.535 19.6093C107.962 20.5921 107.137 21.3413 106.064 21.86C104.986 22.3788 103.716 22.6382 102.248 22.6382H98.055V9.56877H102.248C103.716 9.56877 104.986 9.83434 106.064 10.3669Z" fill="#1A1A1A"/>
    <path d="M113.47 10.9573V15.326H118.378V16.7314H113.47V21.2314H118.957V22.6382H111.712V9.55063H118.957V10.9573H113.47Z" fill="#1A1A1A"/>
    <path d="M31.0468 12.2254C31.0468 12.7773 31.0468 13.3324 31.0468 13.8843C31.5085 13.9669 31.7974 13.8602 32.0333 13.5276C32.2431 13.2322 32.2512 12.9307 32.054 12.628C31.8285 12.2818 31.5186 12.1565 31.0468 12.2254ZM11.9509 12.2201C11.4578 12.1602 11.1349 12.2962 10.9212 12.6609C10.7401 12.97 10.7627 13.2775 10.9888 13.5606C11.2278 13.8598 11.5412 13.9831 11.9509 13.8966C11.9509 13.3272 11.9509 12.7723 11.9509 12.2201ZM29.7191 13.0675C29.7241 13.0675 29.7288 13.0675 29.7336 13.0675C29.7336 12.6191 29.7632 12.1683 29.7218 11.7233C29.6999 11.4869 29.606 11.2231 29.4532 11.0391C29.2501 10.7953 28.9181 10.7702 28.6133 10.8867C28.2724 11.0171 28.1188 11.2849 28.1178 11.6252C28.1146 12.5796 28.1129 13.5339 28.1208 14.488C28.122 14.6216 28.1543 14.7655 28.2147 14.8858C28.3695 15.1945 28.7051 15.3391 29.0686 15.2803C29.422 15.2233 29.6854 14.9775 29.7111 14.5838C29.744 14.0801 29.7191 13.5731 29.7191 13.0675ZM14.884 13.0911C14.884 12.6198 14.8926 12.1484 14.8819 11.6771C14.8699 11.1562 14.5509 10.8238 14.0833 10.8221C13.6408 10.8205 13.2836 11.1481 13.2732 11.6365C13.253 12.5901 13.2517 13.545 13.2747 14.4987C13.2868 14.9976 13.6336 15.3015 14.0944 15.2951C14.5555 15.2887 14.8666 14.9738 14.881 14.4706C14.8941 14.0112 14.8837 13.5509 14.884 13.0911ZM38.8431 34.1292C38.8431 32.6629 38.8431 31.2327 38.8431 29.8009C35.4135 29.8009 32.0107 29.8009 28.6068 29.8009C28.6068 31.2554 28.6068 32.6865 28.6068 34.1292C32.0258 34.1292 35.42 34.1292 38.8431 34.1292ZM29.7078 9.61784C29.93 6.79469 28.5472 3.85917 25.4959 2.23692C22.7169 0.759442 19.1056 0.897408 16.411 2.92886C14.1191 4.65669 13.1608 6.94918 13.2778 9.69314C13.3572 9.69314 13.3937 9.6988 13.4275 9.69216C15.076 9.3704 16.1847 10.2199 16.1871 11.8085C16.1886 12.6714 16.1803 13.5342 16.1894 14.397C16.1987 15.303 15.7927 15.9601 14.9266 16.3703C14.834 16.414 14.7349 16.551 14.7346 16.6451C14.7315 17.6084 14.8984 18.5425 15.327 19.4265C15.9582 20.729 16.9791 21.6838 18.2813 22.3981C19.345 22.9815 20.2059 23.7718 20.8704 24.7463C21.0962 25.0774 21.288 25.4292 21.4976 25.7755C21.7352 25.3914 21.9487 25.0171 22.1908 24.6598C22.9391 23.5561 24.0184 22.8026 25.1746 22.1085C27.2439 20.8664 28.209 19.0325 28.2791 16.7481C28.2865 16.5136 28.1957 16.4145 27.9801 16.3125C27.2712 15.9773 26.8498 15.4212 26.8266 14.6727C26.7936 13.6038 26.8009 12.533 26.8246 11.4636C26.8428 10.65 27.4381 9.90786 28.2771 9.70836C28.7217 9.60261 29.2059 9.64439 29.7078 9.61784ZM27.7726 35.3731C27.381 35.2123 27.2666 34.9119 27.2731 34.5351C27.2826 33.9606 27.2754 33.3859 27.2754 32.7547C27.1394 32.7547 27.0238 32.7547 26.9082 32.7547C26.1381 32.7547 25.3679 32.7584 24.5978 32.7539C22.4347 32.7409 20.8668 31.2658 20.8579 29.2152C20.8528 28.0245 20.6549 26.883 20.0363 25.8272C19.5326 24.9673 18.8687 24.2402 18.0001 23.6927C17.0874 23.1173 16.1486 22.5827 15.4162 21.7842C14.089 20.3372 13.4478 18.6589 13.4352 16.7604C13.4336 16.5202 13.3305 16.4219 13.1265 16.2884C12.7948 16.0714 12.4769 15.799 12.2523 15.4866C12.0916 15.2633 11.9749 15.1495 11.6758 15.1424C10.5379 15.1155 9.64175 14.334 9.51761 13.2987C9.39351 12.263 10.0893 11.3079 11.1801 11.0398C11.424 10.9797 11.6821 10.9705 11.9734 10.9327C11.9734 10.3729 11.9757 9.82381 11.9732 9.2747C11.9686 8.33921 12.059 7.41522 12.3508 6.51617C13.2527 3.73707 15.116 1.7346 17.9836 0.681715C21.3843 -0.566628 24.6005 -0.0910297 27.4719 2.03046C29.4245 3.47312 30.59 5.40433 30.9097 7.73115C31.0358 8.6498 30.9928 9.58917 31.0253 10.5192C31.03 10.6539 31.026 10.7889 31.026 10.9206C31.3672 10.9773 31.6741 10.9986 31.9611 11.0812C32.9716 11.3719 33.6175 12.3471 33.4778 13.3352C33.3389 14.3163 32.4741 15.0967 31.4309 15.1362C31.0797 15.1495 30.8917 15.2377 30.7028 15.5465C30.5141 15.8552 30.1611 16.0926 29.8387 16.305C29.6577 16.4242 29.5658 16.516 29.5656 16.7283C29.5643 18.3851 29.0784 19.9011 28.039 21.2481C27.5178 21.9235 26.8987 22.5093 26.1589 22.9721C25.285 23.5193 24.3749 24.0176 23.7 24.8044C22.8245 25.8254 22.2742 26.9722 22.2005 28.2884C22.1693 28.8445 22.1544 29.4242 22.2846 29.9605C22.504 30.8633 23.355 31.4749 24.3367 31.5067C25.2985 31.5378 26.2625 31.5135 27.2754 31.5135C27.2754 30.9269 27.2754 30.3561 27.2754 29.7852C27.2754 29.6355 27.2729 29.4859 27.2761 29.3366C27.2883 28.7735 27.5292 28.5467 28.1325 28.5456C29.7461 28.5427 31.3598 28.5446 32.9735 28.5446C35.0638 28.5446 37.1541 28.5441 39.2446 28.5449C39.9749 28.5451 40.1748 28.7362 40.1751 29.4312C40.1756 31.1223 40.1664 32.8133 40.1821 34.5042C40.1854 34.8836 40.0865 35.1774 39.7313 35.3731C35.7452 35.3731 31.7587 35.3731 27.7726 35.3731Z" fill="#3AA09A"/>
    <path d="M29.5973 31.967C29.5968 31.6456 29.5863 31.3239 29.5997 31.0027C29.6152 30.6214 29.8681 30.383 30.2335 30.3806C30.5857 30.378 30.8595 30.5945 30.8725 30.9582C30.8965 31.6228 30.8968 32.2894 30.8741 32.9542C30.8613 33.3275 30.5635 33.5621 30.2086 33.5451C29.8614 33.5284 29.6167 33.2926 29.6008 32.9312C29.5868 32.6103 29.598 32.2883 29.5973 31.967Z" fill="#3AA09A"/>
    <path d="M32.8377 31.961C32.8375 32.2828 32.8485 32.6046 32.8348 32.9255C32.8192 33.2873 32.5762 33.5241 32.2295 33.5439C31.8869 33.5635 31.5805 33.3496 31.5644 32.9934C31.5335 32.3068 31.5328 31.6169 31.5644 30.9304C31.5812 30.5673 31.8727 30.3673 32.229 30.3835C32.5761 30.3992 32.8195 30.6345 32.835 30.9969C32.8487 31.3177 32.8378 31.6396 32.8377 31.961Z" fill="#3AA09A"/>
    <path d="M37.7825 30.9679C37.7901 31.3096 37.5032 31.5829 37.1381 31.5815C36.7918 31.58 36.5086 31.3189 36.5016 30.9942C36.4945 30.6658 36.7612 30.3979 37.1103 30.3833C37.478 30.3681 37.775 30.6264 37.7825 30.9679Z" fill="#3AA09A"/>
    <path d="M37.1251 32.3287C37.4877 32.3206 37.7845 32.5916 37.7841 32.9302C37.7836 33.2569 37.5087 33.5201 37.1598 33.5284C36.7964 33.5368 36.5013 33.2679 36.5015 32.9288C36.5016 32.607 36.7828 32.3363 37.1251 32.3287Z" fill="#3AA09A"/>
    <path d="M52.4913 34.2207C52.1055 34.2207 51.734 34.1655 51.3768 34.0552C51.0267 33.9448 50.7373 33.7862 50.5087 33.5793L50.7445 33.1138C51.0088 33.3207 51.291 33.4724 51.5911 33.569C51.8912 33.6586 52.1984 33.7034 52.5128 33.7034C52.9557 33.7034 53.2879 33.6276 53.5094 33.4759C53.738 33.3172 53.8524 33.1 53.8524 32.8241C53.8524 32.6103 53.7773 32.4414 53.6273 32.3172C53.4773 32.1931 53.2415 32.0931 52.92 32.0172L51.9876 31.8103C51.1089 31.6172 50.6695 31.1793 50.6695 30.4965C50.6695 30.0552 50.8481 29.7 51.2053 29.431C51.5625 29.1621 52.0341 29.0276 52.6199 29.0276C52.9771 29.0276 53.3129 29.0862 53.6273 29.2034C53.9417 29.3138 54.1989 29.4759 54.3989 29.6897L54.1417 30.1552C53.9345 29.9552 53.6987 29.8069 53.4344 29.7103C53.1701 29.6069 52.895 29.5552 52.6092 29.5552C52.1948 29.5552 51.8733 29.6379 51.6447 29.8034C51.4232 29.969 51.3125 30.1931 51.3125 30.4759C51.3125 30.6896 51.3803 30.8621 51.5161 30.9931C51.6518 31.1241 51.8733 31.2241 52.1805 31.2931L53.1129 31.5C53.5773 31.6034 53.9238 31.7586 54.1524 31.9655C54.3811 32.1655 54.4954 32.4379 54.4954 32.7828C54.4954 33.231 54.3132 33.5828 53.9488 33.8379C53.5844 34.0931 53.0986 34.2207 52.4913 34.2207Z" fill="#8A9594"/>
    <path d="M56.9042 36L57.7616 34.1172L55.5539 29.1207H56.2826L58.1152 33.4448L59.9692 29.1207H60.6765L57.6115 36H56.9042Z" fill="#8A9594"/>
    <path d="M63.7096 34.2207C63.3238 34.2207 62.9523 34.1655 62.5951 34.0552C62.245 33.9448 61.9557 33.7862 61.727 33.5793L61.9628 33.1138C62.2271 33.3207 62.5094 33.4724 62.8094 33.569C63.1095 33.6586 63.4167 33.7034 63.7311 33.7034C64.174 33.7034 64.5063 33.6276 64.7277 33.4759C64.9564 33.3172 65.0707 33.1 65.0707 32.8241C65.0707 32.6103 64.9957 32.4414 64.8456 32.3172C64.6956 32.1931 64.4598 32.0931 64.1383 32.0172L63.2059 31.8103C62.3272 31.6172 61.8878 31.1793 61.8878 30.4965C61.8878 30.0552 62.0664 29.7 62.4236 29.431C62.7808 29.1621 63.2524 29.0276 63.8382 29.0276C64.1955 29.0276 64.5313 29.0862 64.8456 29.2034C65.16 29.3138 65.4172 29.4759 65.6172 29.6897L65.36 30.1552C65.1528 29.9552 64.9171 29.8069 64.6527 29.7103C64.3884 29.6069 64.1133 29.5552 63.8275 29.5552C63.4131 29.5552 63.0916 29.6379 62.863 29.8034C62.6415 29.969 62.5308 30.1931 62.5308 30.4759C62.5308 30.6896 62.5987 30.8621 62.7344 30.9931C62.8702 31.1241 63.0916 31.2241 63.3989 31.2931L64.3312 31.5C64.7956 31.6034 65.1421 31.7586 65.3707 31.9655C65.5994 32.1655 65.7137 32.4379 65.7137 32.7828C65.7137 33.231 65.5315 33.5828 65.1671 33.8379C64.8028 34.0931 64.3169 34.2207 63.7096 34.2207Z" fill="#8A9594"/>
    <path d="M69.4716 34.2207C68.8929 34.2207 68.4571 34.069 68.1641 33.7655C67.8784 33.4621 67.7355 33.0276 67.7355 32.4621V29.6276H66.7067V29.1207H67.7355V27.569H68.3892V29.1207H70.0717V29.6276H68.3892V32.3793C68.3892 32.8 68.4785 33.1207 68.6571 33.3414C68.8357 33.5621 69.1322 33.6724 69.5466 33.6724C69.6681 33.6724 69.786 33.6586 69.9003 33.631C70.0146 33.6034 70.1146 33.5724 70.2003 33.5379L70.3289 34.0345C70.2504 34.0828 70.1253 34.1241 69.9538 34.1586C69.7824 34.2 69.6216 34.2207 69.4716 34.2207Z" fill="#8A9594"/>
    <path d="M73.7377 34.2207C72.9375 34.2207 72.3052 33.9931 71.8408 33.5379C71.3836 33.0759 71.155 32.4448 71.155 31.6448C71.155 31.1276 71.2586 30.6724 71.4658 30.2793C71.673 29.8862 71.9587 29.5793 72.3231 29.3586C72.6946 29.1379 73.1197 29.0276 73.5984 29.0276C74.2914 29.0276 74.8308 29.2448 75.2166 29.6793C75.6024 30.1138 75.7953 30.7103 75.7953 31.469V31.7586H71.798C71.8194 32.3793 71.9945 32.8586 72.3231 33.1965C72.6589 33.5276 73.1233 33.6931 73.7163 33.6931C74.0378 33.6931 74.3379 33.6448 74.6165 33.5483C74.9023 33.4517 75.1809 33.2897 75.4524 33.0621L75.7096 33.5379C75.481 33.7517 75.1881 33.9207 74.8308 34.0448C74.4736 34.1621 74.1092 34.2207 73.7377 34.2207ZM73.6091 29.5345C73.0661 29.5345 72.641 29.7 72.3338 30.031C72.0337 30.3552 71.8587 30.7759 71.8087 31.2931H75.2059C75.1916 30.7414 75.0488 30.3103 74.7773 30C74.5058 29.6896 74.1164 29.5345 73.6091 29.5345Z" fill="#8A9594"/>
    <path d="M77.578 34.1379V29.1207H78.221V30C78.5425 29.3517 79.0891 29.0276 79.8607 29.0276C80.6895 29.0276 81.2146 29.3759 81.4361 30.0724C81.5861 29.7483 81.8147 29.4931 82.1219 29.3069C82.4292 29.1207 82.7864 29.0276 83.1936 29.0276C84.3439 29.0276 84.919 29.6759 84.919 30.9724V34.1379H84.2653V31.0241C84.2653 30.5276 84.1724 30.1621 83.9867 29.9276C83.8081 29.6931 83.5044 29.5759 83.0757 29.5759C82.6185 29.5759 82.2541 29.731 81.9826 30.0414C81.7111 30.3448 81.5754 30.7586 81.5754 31.2828V34.1379H80.9217V31.0241C80.9217 30.5276 80.8288 30.1621 80.643 29.9276C80.4644 29.6931 80.1643 29.5759 79.7428 29.5759C79.2784 29.5759 78.9105 29.731 78.639 30.0414C78.3675 30.3448 78.2318 30.7586 78.2318 31.2828V34.1379H77.578Z" fill="#8A9594"/>
    <path d="M90.1773 34.1379V29.1207H90.8203V30.031C90.9703 29.7138 91.1882 29.4724 91.474 29.3069C91.7598 29.1414 92.1242 29.0448 92.5671 29.0172L92.8351 28.9965L92.8994 29.5448L92.4385 29.5965C91.9313 29.6379 91.5383 29.8 91.2597 30.0828C90.9811 30.3586 90.8417 30.731 90.8417 31.2V34.1379H90.1773Z" fill="#8A9594"/>
    <path d="M96.4674 34.2207C95.6672 34.2207 95.0349 33.9931 94.5705 33.5379C94.1133 33.0759 93.8847 32.4448 93.8847 31.6448C93.8847 31.1276 93.9882 30.6724 94.1954 30.2793C94.4026 29.8862 94.6884 29.5793 95.0528 29.3586C95.4243 29.1379 95.8494 29.0276 96.3281 29.0276C97.0211 29.0276 97.5605 29.2448 97.9463 29.6793C98.3321 30.1138 98.525 30.7103 98.525 31.469V31.7586H94.5277C94.5491 32.3793 94.7241 32.8586 95.0528 33.1965C95.3886 33.5276 95.853 33.6931 96.446 33.6931C96.7675 33.6931 97.0675 33.6448 97.3462 33.5483C97.632 33.4517 97.9106 33.2897 98.1821 33.0621L98.4393 33.5379C98.2107 33.7517 97.9177 33.9207 97.5605 34.0448C97.2033 34.1621 96.8389 34.2207 96.4674 34.2207ZM96.3388 29.5345C95.7958 29.5345 95.3707 29.7 95.0635 30.031C94.7634 30.3552 94.5884 30.7759 94.5384 31.2931H97.9356C97.9213 30.7414 97.7784 30.3103 97.5069 30C97.2354 29.6896 96.8461 29.5345 96.3388 29.5345Z" fill="#8A9594"/>
    <path d="M100.286 34.1379V29.1207H100.929V30.0207C101.101 29.6897 101.347 29.4414 101.669 29.2759C101.99 29.1103 102.347 29.0276 102.74 29.0276C103.976 29.0276 104.594 29.6759 104.594 30.9724V34.1379H103.941V31.0241C103.941 30.5276 103.837 30.1621 103.63 29.9276C103.423 29.6931 103.094 29.5759 102.644 29.5759C102.13 29.5759 101.715 29.731 101.401 30.0414C101.094 30.3448 100.94 30.7552 100.94 31.2724V34.1379H100.286Z" fill="#8A9594"/>
    <path d="M108.673 34.2207C108.094 34.2207 107.658 34.069 107.365 33.7655C107.08 33.4621 106.937 33.0276 106.937 32.4621V29.6276H105.908V29.1207H106.937V27.569H107.591V29.1207H109.273V29.6276H107.591V32.3793C107.591 32.8 107.68 33.1207 107.858 33.3414C108.037 33.5621 108.334 33.6724 108.748 33.6724C108.869 33.6724 108.987 33.6586 109.102 33.631C109.216 33.6034 109.316 33.5724 109.402 33.5379L109.53 34.0345C109.452 34.0828 109.327 34.1241 109.155 34.1586C108.984 34.2 108.823 34.2207 108.673 34.2207Z" fill="#8A9594"/>
    <path d="M112.338 34.2207C111.988 34.2207 111.673 34.1552 111.395 34.0241C111.123 33.8931 110.905 33.7138 110.741 33.4862C110.584 33.2586 110.505 33.0034 110.505 32.7207C110.505 32.3483 110.602 32.0586 110.794 31.8517C110.987 31.6379 111.312 31.4862 111.77 31.3965C112.227 31.3069 112.856 31.2621 113.656 31.2621H113.988V30.8897C113.988 30.4276 113.892 30.0931 113.699 29.8862C113.506 29.6724 113.199 29.5655 112.777 29.5655C112.463 29.5655 112.159 29.6103 111.866 29.7C111.58 29.7896 111.284 29.931 110.977 30.1241L110.719 29.6379C110.991 29.4517 111.312 29.3034 111.684 29.1931C112.055 29.0828 112.416 29.0276 112.766 29.0276C113.395 29.0276 113.859 29.1828 114.16 29.4931C114.467 29.8034 114.62 30.2793 114.62 30.9207V34.1379H113.999V33.2379C113.856 33.5483 113.638 33.7897 113.345 33.9621C113.059 34.1345 112.723 34.2207 112.338 34.2207ZM112.423 33.7138C112.731 33.7138 112.999 33.6448 113.227 33.5069C113.463 33.3621 113.649 33.1655 113.784 32.9172C113.92 32.669 113.988 32.3862 113.988 32.069V31.7276H113.667C113.024 31.7276 112.52 31.7552 112.155 31.8103C111.798 31.8655 111.548 31.9621 111.405 32.1C111.262 32.2379 111.191 32.4276 111.191 32.669C111.191 32.9793 111.302 33.231 111.523 33.4241C111.745 33.6172 112.045 33.7138 112.423 33.7138Z" fill="#8A9594"/>
    <path d="M118.269 34.2207C117.783 34.2207 117.408 34.0793 117.144 33.7965C116.887 33.5069 116.758 33.0931 116.758 32.5552V26.8448H117.412V32.4828C117.412 33.2759 117.733 33.6724 118.376 33.6724C118.555 33.6724 118.719 33.6517 118.869 33.6103L118.848 34.1586C118.64 34.2 118.448 34.2207 118.269 34.2207Z" fill="#8A9594"/>
    <path d="M75.2229 6.20687V1.83101H75.4544L77.3127 5.25101L79.1581 1.83101H79.3896V6.20687H79.1388V2.3648L77.4284 5.52411H77.2033L75.4736 2.3648V6.20687H75.2229Z" fill="#3AA09A"/>
    <path d="M82.4294 6.25653C82.0221 6.25653 81.6706 6.16549 81.3749 5.98343C81.0791 5.80136 80.8497 5.54274 80.6868 5.20756C80.5282 4.87239 80.4489 4.47515 80.4489 4.01584C80.4489 3.55239 80.5282 3.15515 80.6868 2.82411C80.8454 2.48894 81.0726 2.23239 81.3684 2.05446C81.6642 1.87239 82.0179 1.78135 82.4294 1.78135C82.8409 1.78135 83.1946 1.87239 83.4903 2.05446C83.7904 2.23239 84.0198 2.48894 84.1784 2.82411C84.337 3.15515 84.4163 3.55032 84.4163 4.00963C84.4163 4.47308 84.3348 4.87239 84.1719 5.20756C84.0133 5.54274 83.7861 5.80136 83.4903 5.98343C83.1946 6.16549 82.8409 6.25653 82.4294 6.25653ZM82.4294 6.00205C82.9695 6.00205 83.3875 5.82825 83.6833 5.48067C83.979 5.13308 84.1269 4.6448 84.1269 4.01584C84.1269 3.38687 83.979 2.90066 83.6833 2.55722C83.3918 2.20963 82.9738 2.03584 82.4294 2.03584C81.8935 2.03584 81.4777 2.20963 81.182 2.55722C80.8862 2.90066 80.7383 3.38687 80.7383 4.01584C80.7383 4.64067 80.8862 5.12894 81.182 5.48067C81.4777 5.82825 81.8935 6.00205 82.4294 6.00205Z" fill="#3AA09A"/>
    <path d="M85.4642 6.20687V1.83101H85.6893L88.6857 5.75998V1.83101H88.9365V6.20687H88.7179L85.715 2.2717V6.20687H85.4642Z" fill="#3AA09A"/>
    <path d="M91.3055 6.20687V2.07308H89.5758V1.83101H93.3052V2.07308H91.5755V6.20687H91.3055Z" fill="#3AA09A"/>
    <path d="M93.9414 6.20687V1.83101H96.6678V2.07308H94.2115V3.86687H96.5391V4.10894H94.2115V5.9648H96.6678V6.20687H93.9414Z" fill="#3AA09A"/>
    <path d="M97.6086 6.20687V1.83101H97.8336L100.83 5.75998V1.83101H101.081V6.20687H100.862L97.8593 2.2717V6.20687H97.6086Z" fill="#3AA09A"/>
    <path d="M102.318 6.20687V1.83101H105.044V2.07308H102.588V3.86687H104.916V4.10894H102.588V5.9648H105.044V6.20687H102.318Z" fill="#3AA09A"/>
    <path d="M107.921 6.25653C107.218 6.25653 106.683 6.06205 106.314 5.67308C105.95 5.27998 105.767 4.72756 105.767 4.01584C105.767 3.55239 105.847 3.15515 106.005 2.82411C106.168 2.48894 106.4 2.23239 106.7 2.05446C107 1.87239 107.362 1.78135 107.786 1.78135C108.442 1.78135 108.963 1.9779 109.349 2.37101L109.207 2.58825C108.997 2.39377 108.779 2.25308 108.552 2.16618C108.329 2.07928 108.071 2.03584 107.78 2.03584C107.227 2.03584 106.8 2.20963 106.5 2.55722C106.205 2.90066 106.057 3.38687 106.057 4.01584C106.057 4.66136 106.211 5.15377 106.52 5.49308C106.828 5.83239 107.293 6.00205 107.915 6.00205C108.357 6.00205 108.757 5.92963 109.117 5.7848V4.24549H107.87V4.00342H109.375V5.9586C109.272 6.01239 109.139 6.06205 108.976 6.10756C108.813 6.15308 108.639 6.18825 108.455 6.21308C108.271 6.24205 108.093 6.25653 107.921 6.25653Z" fill="#3AA09A"/>
    <path d="M110.569 6.20687V1.83101H112.209C112.685 1.83101 113.049 1.93653 113.302 2.14756C113.555 2.35859 113.681 2.66066 113.681 3.05377C113.681 3.37653 113.587 3.63929 113.398 3.84204C113.21 4.04067 112.944 4.16687 112.601 4.22066C112.781 4.28687 112.942 4.44825 113.083 4.7048L113.926 6.20687H113.63L112.845 4.80411C112.725 4.58894 112.593 4.44618 112.447 4.37584C112.301 4.30549 112.102 4.27032 111.849 4.27032H110.839V6.20687H110.569ZM110.839 4.02825H112.183C112.993 4.02825 113.398 3.70135 113.398 3.04756C113.398 2.39791 112.993 2.07308 112.183 2.07308H110.839V4.02825Z" fill="#3AA09A"/>
    <path d="M116.539 6.25653C116.132 6.25653 115.78 6.16549 115.484 5.98343C115.189 5.80136 114.959 5.54274 114.796 5.20756C114.638 4.87239 114.559 4.47515 114.559 4.01584C114.559 3.55239 114.638 3.15515 114.796 2.82411C114.955 2.48894 115.182 2.23239 115.478 2.05446C115.774 1.87239 116.127 1.78135 116.539 1.78135C116.95 1.78135 117.304 1.87239 117.6 2.05446C117.9 2.23239 118.129 2.48894 118.288 2.82411C118.447 3.15515 118.526 3.55032 118.526 4.00963C118.526 4.47308 118.444 4.87239 118.282 5.20756C118.123 5.54274 117.896 5.80136 117.6 5.98343C117.304 6.16549 116.95 6.25653 116.539 6.25653ZM116.539 6.00205C117.079 6.00205 117.497 5.82825 117.793 5.48067C118.089 5.13308 118.237 4.6448 118.237 4.01584C118.237 3.38687 118.089 2.90066 117.793 2.55722C117.501 2.20963 117.083 2.03584 116.539 2.03584C116.003 2.03584 115.587 2.20963 115.292 2.55722C114.996 2.90066 114.848 3.38687 114.848 4.01584C114.848 4.64067 114.996 5.12894 115.292 5.48067C115.587 5.82825 116.003 6.00205 116.539 6.00205Z" fill="#3AA09A"/>
</svg>
