<svg width="64" height="64" viewBox="0 0 64 64" fill="none" xmlns="http://www.w3.org/2000/svg">
<rect width="64" height="64" fill="white"/>
<path d="M40.8979 23.6263C40.8979 24.422 40.8979 25.2223 40.8979 26.018C41.56 26.1371 41.9745 25.9832 42.3128 25.5036C42.6136 25.0778 42.6253 24.6431 42.3425 24.2067C42.019 23.7076 41.5746 23.5268 40.8979 23.6263ZM13.5104 23.6186C12.8032 23.5322 12.34 23.7283 12.0335 24.2541C11.7738 24.6998 11.8062 25.1432 12.1305 25.5513C12.4732 25.9827 12.9227 26.1604 13.5104 26.0357C13.5104 25.2148 13.5104 24.4147 13.5104 23.6186ZM38.9937 24.8404C39.0009 24.8404 39.0076 24.8404 39.0145 24.8404C39.0145 24.1939 39.0569 23.5439 38.9975 22.9023C38.9662 22.5614 38.8315 22.1811 38.6123 21.9159C38.3211 21.5643 37.8449 21.5281 37.4077 21.6962C36.9189 21.8841 36.6985 22.2703 36.6971 22.7608C36.6925 24.1369 36.6901 25.5128 36.7014 26.8884C36.7031 27.081 36.7495 27.2885 36.8361 27.462C37.0582 27.907 37.5394 28.1155 38.0608 28.0307C38.5676 27.9486 38.9454 27.5941 38.9822 27.0266C39.0294 26.3002 38.9937 25.5693 38.9937 24.8404ZM17.7171 24.8744C17.7171 24.1948 17.7294 23.5152 17.714 22.8358C17.6969 22.0847 17.2392 21.6054 16.5687 21.603C15.934 21.6007 15.4216 22.073 15.4069 22.7772C15.3778 24.1521 15.3759 25.5289 15.409 26.9038C15.4263 27.6231 15.9237 28.0613 16.5846 28.052C17.2459 28.0429 17.692 27.5888 17.7128 26.8634C17.7315 26.201 17.7166 25.5373 17.7171 24.8744ZM52.0794 55.2065C52.0794 53.0925 52.0794 51.0304 52.0794 48.9661C47.1607 48.9661 42.2803 48.9661 37.3984 48.9661C37.3984 51.0631 37.3984 53.1265 37.3984 55.2065C42.302 55.2065 47.17 55.2065 52.0794 55.2065ZM38.9775 19.8667C39.2962 15.7964 37.313 11.564 32.9367 9.22513C28.951 7.09494 23.7717 7.29386 19.9071 10.2227C16.62 12.7139 15.2455 16.0191 15.4133 19.9753C15.5273 19.9753 15.5796 19.9835 15.628 19.9739C17.9923 19.51 19.5825 20.7348 19.5859 23.0251C19.5881 24.2693 19.5762 25.5132 19.5892 26.7572C19.6026 28.0634 19.0203 29.0108 17.7781 29.6022C17.6454 29.6653 17.5032 29.8628 17.5027 29.9984C17.4983 31.3873 17.7376 32.734 18.3524 34.0085C19.2576 35.8866 20.7218 37.2631 22.5894 38.293C24.1151 39.1341 25.3498 40.2735 26.3029 41.6785C26.6266 42.1559 26.9018 42.6631 27.2023 43.1625C27.5431 42.6086 27.8493 42.0689 28.1965 41.5538C29.2697 39.9625 30.8177 38.8762 32.4759 37.8755C35.4437 36.0845 36.828 33.4405 36.9285 30.1469C36.939 29.8088 36.8088 29.666 36.4997 29.5189C35.483 29.0356 34.8785 28.2339 34.8453 27.1548C34.7979 25.6136 34.8084 24.0697 34.8424 22.5278C34.8685 21.3549 35.7222 20.2849 36.9256 19.9972C37.5633 19.8448 38.2577 19.905 38.9775 19.8667ZM36.202 57C35.6404 56.7682 35.4763 56.3351 35.4856 55.7918C35.4992 54.9634 35.4889 54.1349 35.4889 53.2248C35.2939 53.2248 35.1281 53.2248 34.9623 53.2248C33.8577 53.2248 32.7532 53.2302 31.6487 53.2236C28.5464 53.2049 26.2976 51.0782 26.2849 48.1216C26.2775 46.4049 25.9937 44.7591 25.1064 43.2369C24.384 41.9972 23.4319 40.9489 22.1862 40.1595C20.8771 39.3298 19.5308 38.5591 18.4803 37.4079C16.5768 35.3216 15.6572 32.9019 15.6391 30.1647C15.6368 29.8184 15.4889 29.6767 15.1964 29.4841C14.7207 29.1712 14.2647 28.7785 13.9426 28.3282C13.7122 28.0062 13.5448 27.8421 13.1158 27.8318C11.4838 27.7931 10.1985 26.6663 10.0205 25.1737C9.8425 23.6805 10.8404 22.3035 12.4049 21.9168C12.7546 21.8302 13.1248 21.8169 13.5426 21.7625C13.5426 20.9554 13.5459 20.1637 13.5422 19.372C13.5357 18.0232 13.6653 16.6911 14.0839 15.3948C15.3773 11.388 18.0498 8.5009 22.1625 6.98288C27.0399 5.18305 31.6525 5.86876 35.7708 8.92746C38.5711 11.0074 40.2428 13.7918 40.7012 17.1466C40.8821 18.471 40.8204 19.8254 40.8671 21.1662C40.8738 21.3605 40.868 21.5552 40.868 21.745C41.3574 21.8267 41.7976 21.8575 42.2092 21.9766C43.6585 22.3957 44.5848 23.8016 44.3845 25.2263C44.1852 26.6409 42.945 27.766 41.4488 27.8229C40.9451 27.8421 40.6754 27.9693 40.4045 28.4146C40.1339 28.8596 39.6276 29.2018 39.1653 29.5081C38.9057 29.68 38.7738 29.8123 38.7736 30.1184C38.7717 32.5071 38.0749 34.6928 36.5841 36.6349C35.8366 37.6086 34.9486 38.4533 33.8877 39.1206C32.6343 39.9095 31.329 40.6279 30.3611 41.7623C29.1053 43.2344 28.3162 44.8878 28.2104 46.7855C28.1657 47.5872 28.1444 48.4231 28.331 49.1962C28.6457 50.4978 29.8663 51.3796 31.2742 51.4254C32.6537 51.4703 34.0363 51.4353 35.4889 51.4353C35.4889 50.5896 35.4889 49.7666 35.4889 48.9434C35.4889 48.7277 35.4853 48.512 35.4899 48.2967C35.5074 47.4849 35.8529 47.1578 36.7181 47.1562C39.0325 47.152 41.3468 47.1548 43.6612 47.1548C46.6592 47.1548 49.6571 47.1541 52.6554 47.1553C53.7027 47.1555 53.9894 47.431 53.9898 48.4331C53.9906 50.8712 53.9774 53.3093 53.9999 55.7472C54.0047 56.2942 53.8628 56.7177 53.3533 57C47.6364 57 41.919 57 36.202 57Z" fill="#3AA09A"/>
<path d="M38.819 52.0892C38.8183 51.6258 38.8033 51.1619 38.8224 50.6988C38.8446 50.1491 39.2074 49.8054 39.7314 49.8019C40.2366 49.7982 40.6292 50.1103 40.6479 50.6346C40.6823 51.5929 40.6828 52.554 40.6503 53.5124C40.6319 54.0506 40.2047 54.3889 39.6958 54.3643C39.1978 54.3403 38.8468 54.0003 38.8241 53.4792C38.804 53.0166 38.82 52.5524 38.819 52.0892Z" fill="#3AA09A"/>
<path d="M43.4664 52.0805C43.4662 52.5444 43.482 53.0084 43.4623 53.4711C43.4398 53.9927 43.0914 54.334 42.5942 54.3627C42.1027 54.391 41.6634 54.0825 41.6402 53.5689C41.5959 52.579 41.595 51.5844 41.6402 50.5945C41.6644 50.0711 42.0824 49.7827 42.5935 49.8061C43.0912 49.8287 43.4403 50.168 43.4626 50.6905C43.4822 51.153 43.4666 51.6171 43.4664 52.0805Z" fill="#3AA09A"/>
<path d="M50.5583 50.6487C50.5693 51.1413 50.1577 51.5354 49.6342 51.5333C49.1374 51.5312 48.7314 51.1547 48.7213 50.6865C48.711 50.213 49.0936 49.8269 49.5942 49.8058C50.1216 49.7839 50.5475 50.1563 50.5583 50.6487Z" fill="#3AA09A"/>
<path d="M49.6155 52.6106C50.1355 52.5989 50.5612 52.9897 50.5607 53.4779C50.56 53.9488 50.1656 54.3284 49.6653 54.3404C49.1441 54.3525 48.7208 53.9647 48.7211 53.4758C48.7213 53.0119 49.1245 52.6215 49.6155 52.6106Z" fill="#3AA09A"/>
</svg>
